<?xml version="1.0" standalone="no"?>
<!DOCTYPE svg PUBLIC "-//W3C//DTD SVG 20010904//EN"
 "http://www.w3.org/TR/2001/REC-SVG-20010904/DTD/svg10.dtd">
<svg version="1.0" xmlns="http://www.w3.org/2000/svg"
 width="1080.000000pt" height="1080.000000pt" viewBox="0 0 1080.000000 1080.000000"
 preserveAspectRatio="xMidYMid meet">

<g transform="translate(0.000000,1080.000000) scale(0.100000,-0.100000)"
fill="#951366" stroke="none">
<path d="M0 5400 l0 -5400 5400 0 5400 0 0 5400 0 5400 -5400 0 -5400 0 0
-5400z m5442 2599 c30 -16 48 -70 48 -143 l0 -66 26 10 c28 11 107 13 117 4 3
-4 -16 -31 -42 -61 -60 -67 -109 -163 -117 -229 l-6 -49 35 70 c85 167 183
226 292 176 22 -10 54 -21 70 -25 30 -7 75 -42 75 -58 0 -4 -19 -8 -42 -8
-182 -1 -367 -138 -474 -349 l-27 -54 -13 32 c-25 60 -102 169 -159 225 -81
79 -194 133 -299 143 l-78 8 27 28 c16 15 40 30 54 33 14 3 47 14 73 25 60 24
91 24 145 -2 50 -24 92 -74 146 -173 l38 -71 -6 45 c-8 62 -57 159 -116 231
-58 68 -53 75 39 66 l57 -6 1 62 c1 115 62 176 136 136z m-1282 -84 c16 -8 34
-24 40 -34 23 -44 2 -131 -35 -145 -32 -12 -35 -6 -14 23 30 41 23 75 -17 79
-25 2 -37 -3 -54 -25 -18 -24 -21 -38 -18 -89 3 -50 10 -69 39 -110 68 -95
182 -143 359 -151 l115 -6 -31 29 c-38 36 -50 81 -34 129 14 43 44 65 88 65
75 0 115 -104 43 -112 -32 -4 -50 25 -33 52 17 27 16 30 -15 30 -41 0 -63 -26
-63 -76 0 -35 5 -47 30 -68 33 -27 60 -32 221 -40 157 -8 271 -50 363 -135 31
-29 106 -138 106 -155 0 -6 -15 12 -34 40 -100 148 -251 223 -449 224 -73 0
-85 -3 -160 -42 -114 -59 -200 -148 -300 -311 -73 -117 -125 -177 -156 -177
-7 0 -10 8 -7 18 8 29 26 135 23 138 -2 2 -23 -25 -48 -59 -95 -132 -234 -181
-395 -141 -24 6 -23 8 25 35 69 40 68 59 -4 59 -136 0 -271 101 -320 241 -8
22 -12 39 -10 39 2 0 20 -9 39 -21 l36 -21 0 64 c1 105 49 180 136 208 42 14
219 9 235 -7 6 -6 -7 -21 -37 -42 -123 -89 -149 -213 -52 -249 58 -22 117 -2
176 60 144 151 149 155 200 172 28 10 60 18 71 19 27 2 15 17 -14 17 -81 0
-211 87 -246 165 -26 56 -24 69 6 61 l25 -6 0 80 c0 50 6 95 16 120 26 64 91
87 154 55z m2585 5 c41 -16 66 -84 66 -180 0 -44 2 -80 4 -80 2 0 15 4 28 9
24 10 25 9 17 -20 -14 -49 -58 -116 -90 -139 -45 -32 -137 -70 -171 -70 -41 0
-28 -17 20 -25 57 -10 121 -54 181 -127 88 -106 156 -141 226 -118 97 32 79
145 -37 238 -34 28 -55 50 -49 56 5 5 52 11 104 14 75 4 106 1 139 -12 82 -31
126 -101 130 -206 l2 -59 34 20 c18 11 36 17 39 15 3 -3 -9 -34 -27 -70 -61
-124 -165 -197 -293 -204 -38 -2 -68 -7 -68 -11 0 -11 42 -47 74 -64 l30 -15
-53 -11 c-149 -32 -278 19 -370 146 -25 34 -47 61 -48 59 -3 -3 5 -51 23 -133
3 -16 0 -23 -10 -23 -30 0 -78 56 -153 178 -98 161 -184 251 -300 310 -74 38
-88 42 -155 42 -167 0 -282 -44 -384 -145 -34 -35 -70 -77 -79 -95 -9 -18 -19
-29 -22 -27 -9 10 66 124 105 159 95 85 205 126 362 134 159 7 187 13 220 40
24 21 30 34 30 67 0 46 -22 77 -56 77 -21 0 -22 -3 -17 -36 8 -50 -27 -72 -61
-38 -38 37 5 104 67 104 94 0 130 -119 57 -191 l-28 -29 71 0 c259 0 437 113
437 277 0 67 -28 105 -74 101 -40 -4 -46 -36 -16 -78 21 -30 17 -36 -15 -24
-37 14 -58 101 -35 144 22 42 91 61 145 40z m-3811 -292 c-28 -131 -10 -299
42 -405 33 -68 103 -129 207 -180 80 -40 235 -93 328 -113 33 -7 13 -8 -81 -5
-142 6 -239 24 -313 58 -29 14 -110 73 -182 132 -136 114 -234 182 -272 191
-13 4 -23 10 -23 14 0 15 83 22 113 11 16 -6 30 -11 31 -11 2 0 3 42 3 93 -2
100 11 153 50 205 20 27 83 70 104 72 3 0 0 -28 -7 -62z m1401 -14 l80 -76
-50 7 c-56 8 -130 37 -157 62 -34 30 -17 84 27 83 11 -1 56 -35 100 -76z
m2263 64 c18 -18 15 -52 -6 -71 -28 -25 -102 -55 -157 -62 l-50 -8 80 76 c78
75 109 89 133 65z m1294 -3 c46 -19 94 -75 110 -127 7 -24 12 -85 12 -136 0
-80 2 -92 15 -86 34 13 78 15 111 6 l35 -9 -37 -16 c-56 -24 -150 -90 -282
-200 -66 -54 -137 -107 -158 -118 -74 -38 -186 -60 -328 -64 l-135 -5 80 19
c237 56 414 145 485 243 67 92 98 296 68 441 -8 37 -14 67 -13 67 2 0 18 -7
37 -15z m-5476 -301 c65 -31 94 -100 74 -174 l-11 -43 -32 30 c-18 17 -45 37
-62 44 -29 14 -30 17 -31 79 -1 90 2 92 62 64z m6156 -13 c34 -22 50 -40 63
-75 53 -137 -47 -288 -225 -341 -21 -7 -20 -4 13 27 72 68 103 202 57 248 -11
11 -25 20 -30 20 -25 0 -78 -30 -97 -54 -12 -14 -23 -26 -27 -26 -12 0 -27 83
-20 113 16 75 74 116 165 117 44 0 64 -6 101 -29z m-3587 -8 c66 -21 145 -74
196 -131 60 -68 116 -185 123 -257 l6 -60 -19 57 c-36 111 -97 186 -188 232
-88 44 -174 -17 -133 -95 14 -25 27 -24 35 1 15 48 85 45 85 -5 0 -50 -69 -74
-117 -40 -25 17 -39 71 -29 110 16 64 124 78 204 25 l47 -32 -49 51 c-117 120
-331 180 -441 123 -100 -51 -158 -150 -158 -271 1 -84 17 -136 57 -176 21 -21
34 -25 84 -25 53 0 82 11 82 32 0 4 -6 8 -13 8 -47 0 -74 84 -40 122 42 46
123 1 123 -69 0 -74 -54 -113 -155 -113 -88 0 -150 45 -180 129 -17 49 -20
149 -5 202 32 114 226 218 380 203 30 -3 78 -12 105 -21z m1033 17 c185 -30
295 -140 295 -294 0 -146 -74 -236 -196 -236 -103 0 -157 39 -157 113 0 69 80
115 124 71 35 -34 7 -124 -39 -124 -8 0 -15 -4 -15 -10 0 -17 38 -30 90 -30
66 0 101 32 125 115 49 167 -60 354 -220 378 -53 8 -163 -16 -241 -52 -64 -30
-157 -107 -175 -146 -10 -19 -10 -19 8 1 62 73 186 90 228 31 24 -34 19 -94
-10 -122 -43 -43 -125 -27 -125 25 0 18 24 50 38 50 16 0 52 -32 52 -46 0 -20
17 -17 30 5 28 53 -6 111 -66 111 -59 0 -148 -56 -196 -123 -12 -17 -35 -65
-50 -107 l-28 -75 6 60 c3 33 13 70 21 83 8 13 12 31 8 40 -3 9 -3 13 1 10 4
-4 22 18 40 50 78 131 221 220 374 231 8 0 43 -4 78 -9z m-1544 -192 c-8 -24
-24 -79 -34 -122 -21 -86 -30 -102 -54 -93 -25 10 -30 54 -12 100 14 36 100
157 111 157 2 0 -3 -19 -11 -42z m1942 -93 c26 -55 29 -77 14 -106 -24 -43
-52 -17 -65 60 -4 24 -18 76 -31 115 l-23 71 40 -45 c23 -25 52 -67 65 -95z
m-2989 -17 c115 -78 118 -90 12 -63 -106 28 -159 64 -159 110 0 41 30 31 147
-47z m4097 64 c2 -4 -2 -22 -9 -39 -16 -37 -63 -64 -154 -88 -106 -27 -103
-15 12 63 100 67 139 83 151 64z m-4768 -33 c76 -24 155 -62 224 -108 l45 -31
-87 0 c-48 0 -98 4 -113 10 -19 7 -134 94 -194 146 -14 12 67 1 125 -17z
m5409 13 c-69 -60 -166 -133 -188 -141 -16 -6 -67 -11 -114 -11 l-86 0 25 20
c46 36 177 101 240 120 65 19 139 26 123 12z m693 -18 c1 -18 -2 -23 -11 -18
-9 6 -9 5 0 -8 7 -8 10 -18 6 -22 -10 -10 -13 -37 -3 -31 5 3 7 -3 6 -12 -5
-33 -309 -123 -411 -122 l-50 1 61 13 c127 27 249 90 345 176 30 26 54 48 54
49 0 0 2 -11 3 -26z m-6453 -144 c3 -5 1 -10 -4 -10 -6 0 -11 5 -11 10 0 6 2
10 4 10 3 0 8 -4 11 -10z m410 -30 l120 -39 -105 2 c-94 3 -114 7 -195 39
l-90 37 75 0 c61 0 97 -7 195 -39z m5434 35 c-3 -2 -46 -20 -97 -40 -83 -32
-100 -35 -189 -34 l-98 1 115 38 c92 30 131 38 194 39 44 1 77 -1 75 -4z
m-2815 -104 c83 -262 70 -401 -36 -401 -72 0 -94 44 -85 174 5 84 73 320 88
310 5 -3 20 -40 33 -83z m-2017 9 c-45 -36 -152 -79 -223 -90 -69 -11 -174 -5
-174 11 0 9 52 49 90 70 22 12 131 23 279 27 l54 2 -26 -20z m4278 -12 c47
-23 100 -66 91 -75 -13 -14 -192 -7 -244 10 -59 18 -146 63 -164 84 -19 24
265 7 317 -19z m-6145 -1084 c25 -10 60 -29 79 -43 37 -28 91 -105 91 -131 0
-17 -81 -70 -108 -70 -9 0 -27 18 -40 41 -33 57 -94 84 -174 75 -138 -14 -193
-93 -193 -271 1 -152 51 -232 159 -255 102 -21 184 18 213 101 11 29 24 49 33
49 8 0 39 -10 68 -22 59 -26 60 -32 20 -117 -90 -188 -385 -222 -545 -62 -131
132 -151 415 -40 578 41 59 124 118 197 138 68 19 178 14 240 -11z m5038 -5
c59 -26 109 -64 117 -89 10 -31 -49 -100 -85 -100 -16 0 -30 7 -34 16 -11 30
-93 56 -162 52 -72 -4 -104 -25 -104 -69 0 -62 17 -74 163 -113 122 -32 181
-66 218 -124 50 -79 48 -195 -5 -273 -70 -102 -294 -135 -428 -62 -47 26 -128
105 -128 125 0 5 14 30 32 54 40 56 72 59 107 9 32 -48 100 -78 176 -79 96 -1
138 42 120 124 -8 38 -32 50 -163 85 -123 33 -181 68 -216 128 -84 143 -6 300
167 337 61 13 173 3 225 -21z m722 5 c25 -10 60 -29 79 -43 37 -28 91 -105 91
-131 0 -17 -81 -70 -108 -70 -9 0 -27 18 -40 41 -33 57 -94 84 -174 75 -138
-14 -193 -93 -193 -271 1 -152 51 -232 159 -255 102 -21 184 18 213 101 11 29
24 49 33 49 8 0 39 -10 68 -22 59 -26 60 -32 20 -117 -90 -188 -385 -222 -545
-62 -131 132 -151 415 -40 578 41 59 124 118 197 138 68 19 178 14 240 -11z
m3000 0 c107 -41 185 -125 217 -234 25 -84 23 -248 -5 -330 -58 -172 -208
-261 -404 -239 -210 24 -338 233 -300 490 26 179 110 280 272 326 56 16 162
10 220 -13z m-9860 -134 l0 -150 160 0 160 0 0 150 0 150 75 0 75 0 0 -410 0
-410 -75 0 -75 0 0 185 0 185 -160 0 -160 0 0 -185 0 -185 -80 0 -80 0 0 410
0 410 80 0 80 0 0 -150z m1715 133 c21 -52 275 -786 275 -794 0 -6 -34 -9 -82
-7 l-81 3 -35 103 -34 102 -133 0 -133 0 -34 -102 -35 -103 -81 -3 c-45 -2
-82 0 -82 3 0 3 55 162 121 353 67 191 130 373 141 405 l20 57 83 0 c70 0 84
-3 90 -17z m699 11 c68 -10 145 -60 175 -114 51 -92 27 -236 -48 -289 l-30
-22 23 -34 c13 -19 45 -101 70 -182 26 -81 49 -154 51 -161 4 -10 -14 -12 -77
-10 l-81 3 -49 145 c-26 79 -57 153 -67 164 -15 14 -38 20 -95 24 l-76 5 0
-172 0 -171 -80 0 -80 0 0 410 0 410 159 0 c87 0 179 -3 205 -6z m856 -69 l0
-75 -185 0 -185 0 0 -85 0 -85 160 0 160 0 0 -75 0 -75 -160 0 -160 0 0 -100
0 -100 190 0 190 0 0 -75 0 -75 -270 0 -270 0 0 410 0 410 265 0 265 0 0 -75z
m920 48 c85 -38 150 -141 150 -238 0 -52 -29 -133 -61 -170 -53 -60 -119 -84
-247 -92 l-112 -6 0 -144 0 -143 -80 0 -80 0 0 411 0 411 193 -4 c166 -4 198
-7 237 -25z m670 5 c92 -40 140 -113 140 -213 0 -72 -24 -130 -69 -168 l-32
-27 25 -42 c21 -37 116 -314 116 -339 0 -5 -36 -9 -79 -9 l-80 0 -41 133 c-23
72 -48 144 -56 159 -17 33 -70 51 -139 46 l-50 -3 -3 -167 -2 -168 -75 0 -75
0 0 411 0 411 193 -4 c144 -3 201 -8 227 -20z m790 -53 l0 -75 -185 0 -185 0
0 -85 0 -85 165 0 165 0 0 -75 0 -75 -165 0 -165 0 0 -100 0 -100 190 0 190 0
0 -75 0 -75 -270 0 -270 0 0 410 0 410 265 0 265 0 0 -75z m1840 65 c65 -12
136 -62 163 -114 46 -88 30 -203 -36 -269 l-39 -39 25 -47 c20 -37 117 -315
117 -335 0 -3 -36 -6 -79 -6 l-79 0 -42 128 c-60 179 -65 190 -109 202 -20 5
-60 10 -88 10 l-53 0 0 -170 0 -170 -80 0 -80 0 0 410 0 410 164 0 c90 0 187
-4 216 -10z m470 -400 l0 -410 -80 0 -80 0 0 410 0 410 80 0 80 0 0 -410z
m530 399 c125 -27 200 -122 200 -253 -1 -181 -113 -265 -357 -266 l-63 0 0
-145 0 -145 -80 0 -80 0 0 410 0 410 165 0 c90 0 187 -5 215 -11z m840 -64 l0
-75 -115 0 -115 0 0 -335 0 -335 -80 0 -80 0 0 335 0 335 -115 0 -115 0 0 75
0 75 310 0 310 0 0 -75z m-5660 -345 l0 -70 -180 0 -180 0 0 70 0 70 180 0
180 0 0 -70z m1341 -1036 c20 -22 24 -38 28 -105 l3 -79 27 8 c32 9 107 9 116
0 4 -4 -14 -28 -39 -54 -54 -57 -115 -173 -123 -235 l-6 -44 38 73 c49 93 119
166 175 183 37 11 49 11 89 -5 25 -9 63 -22 84 -28 21 -6 52 -25 70 -42 l32
-31 -80 -6 c-126 -10 -197 -43 -299 -139 -60 -57 -117 -133 -156 -209 l-22
-44 -32 60 c-108 202 -262 319 -438 332 l-80 6 22 27 c12 16 40 33 63 40 23 6
47 15 54 20 23 18 79 28 116 22 59 -9 138 -88 187 -186 43 -87 53 -76 20 23
-25 74 -60 131 -113 186 -22 24 -37 46 -33 50 9 10 83 10 116 1 26 -7 26 -7
26 60 1 68 20 125 46 135 36 15 85 6 109 -19z m-1298 -66 c34 -18 46 -40 47
-84 0 -46 -26 -88 -60 -97 l-21 -5 21 33 c24 39 26 71 4 79 -54 21 -94 -20
-94 -96 0 -122 96 -221 255 -263 61 -15 255 -32 255 -21 0 3 -15 19 -32 35
-29 26 -33 36 -33 79 0 39 5 56 23 75 54 58 152 31 152 -42 0 -25 -33 -44 -60
-36 -21 7 -28 49 -10 60 15 9 2 25 -21 25 -57 0 -81 -99 -36 -144 30 -30 104
-46 212 -46 108 0 173 -14 262 -56 91 -43 162 -113 208 -204 43 -85 46 -105 4
-30 -71 130 -220 238 -359 260 -129 20 -176 14 -269 -32 -115 -57 -195 -138
-290 -291 -84 -136 -113 -172 -152 -193 -29 -14 -29 -14 -25 8 33 157 33 163
-8 103 -40 -61 -100 -116 -158 -147 -37 -20 -58 -23 -150 -23 -95 0 -145 10
-111 22 22 8 76 48 80 59 2 7 -21 13 -62 17 -151 14 -273 116 -320 266 l-7 24
35 -21 c19 -12 37 -22 41 -22 3 0 6 26 6 58 0 166 128 249 324 212 l66 -12
-38 -27 c-84 -61 -132 -129 -132 -186 0 -16 12 -38 30 -57 28 -28 35 -30 85
-26 65 5 107 34 172 119 57 72 106 107 183 128 l61 17 -59 12 c-81 17 -160 66
-200 126 -50 75 -56 120 -13 96 20 -10 21 -9 21 66 0 93 15 149 48 175 28 22
91 25 125 7z m2605 -10 c33 -36 43 -75 43 -165 0 -81 1 -83 20 -72 29 15 34 5
21 -39 -26 -85 -120 -158 -239 -185 l-56 -13 56 -13 c74 -16 130 -56 198 -138
65 -80 116 -113 177 -113 35 0 49 6 74 30 26 27 30 36 25 69 -6 49 -45 106
-107 156 -47 38 -48 40 -27 49 12 5 65 10 117 10 79 0 102 -3 137 -22 67 -35
100 -98 105 -199 2 -29 5 -53 7 -53 2 0 19 10 38 22 l35 21 -7 -24 c-44 -149
-167 -252 -319 -266 -37 -3 -66 -10 -66 -15 0 -5 20 -21 45 -36 24 -15 45 -30
45 -33 0 -11 -59 -19 -134 -19 -54 0 -83 6 -123 24 -63 30 -136 95 -170 153
-14 24 -27 42 -29 40 -2 -2 3 -39 11 -83 8 -43 15 -80 15 -82 0 -1 -13 4 -29
12 -39 21 -68 57 -152 193 -95 155 -174 234 -293 292 l-88 44 -99 -7 c-106 -7
-196 -31 -257 -70 -48 -30 -156 -146 -181 -194 -11 -20 -20 -33 -21 -28 -1 26
71 134 120 179 106 98 210 137 367 137 175 0 243 30 243 110 0 44 -26 80 -59
80 -23 0 -36 -16 -21 -25 16 -10 12 -52 -6 -59 -25 -10 -52 2 -60 26 -9 30 14
66 52 78 106 35 166 -106 81 -190 l-32 -32 104 7 c166 11 253 40 332 112 55
50 79 100 79 166 0 81 -39 122 -94 101 -22 -9 -20 -46 5 -78 25 -32 22 -39
-11 -23 -56 28 -67 112 -21 158 25 24 38 29 78 29 38 0 54 -5 71 -22z m-3834
-270 c-27 -125 -12 -288 36 -395 53 -120 206 -217 450 -283 47 -13 88 -27 93
-30 12 -10 -162 0 -243 15 -133 24 -180 48 -318 162 -144 120 -263 202 -306
210 -26 6 -28 7 -11 14 30 12 114 10 137 -2 20 -11 20 -9 14 58 -13 135 30
246 113 290 24 13 45 23 46 23 1 0 -4 -28 -11 -62z m1332 48 c3 -7 39 -43 80
-80 70 -62 73 -65 42 -60 -133 24 -198 60 -198 109 0 37 64 63 76 31z m2332 2
c7 -7 12 -25 12 -40 0 -34 -38 -61 -115 -82 -121 -34 -122 -33 -27 54 88 79
108 90 130 68z m1358 -53 c42 -48 59 -112 59 -222 -1 -84 0 -91 16 -82 22 11
107 11 134 -1 20 -9 20 -9 0 -9 -35 -1 -158 -84 -298 -199 -144 -119 -183
-143 -273 -166 -87 -22 -303 -41 -317 -27 -8 8 -5 11 10 11 43 0 232 63 328
110 108 52 172 106 206 171 54 106 73 284 46 416 l-13 62 35 -15 c20 -8 50
-30 67 -49z m-5503 -283 c39 -37 53 -91 38 -143 l-13 -41 -32 31 c-18 18 -46
35 -62 40 -28 7 -29 8 -29 83 l-1 75 36 -9 c19 -6 47 -22 63 -36z m6070 37
c50 -13 103 -61 118 -106 27 -81 -18 -209 -94 -264 -43 -32 -89 -55 -141 -70
-27 -8 -26 -6 14 28 23 20 51 55 61 77 20 45 25 136 9 167 -20 36 -115 15
-140 -31 -16 -31 -28 -24 -41 22 -32 121 81 214 214 177z m-3498 -48 c77 -36
174 -124 213 -192 14 -26 29 -46 33 -43 4 2 5 -6 1 -18 -3 -12 -1 -19 5 -15 5
3 10 1 10 -6 1 -7 6 -36 12 -66 17 -84 12 -92 -13 -21 -31 88 -37 99 -94 152
-56 53 -119 88 -157 88 -33 0 -75 -41 -75 -73 0 -29 39 -83 40 -55 0 40 71 67
84 32 17 -44 -12 -84 -62 -84 -36 0 -82 52 -82 93 0 102 126 130 221 49 l44
-37 -23 32 c-69 98 -242 183 -373 183 -109 0 -218 -86 -250 -199 -30 -103 -3
-238 55 -276 39 -26 101 -31 131 -11 30 20 32 36 6 36 -47 0 -67 84 -30 121
41 41 119 -5 119 -71 0 -62 -42 -101 -126 -115 -130 -21 -224 76 -224 233 0
86 17 132 68 185 42 44 134 94 196 107 22 5 78 8 123 6 66 -3 95 -10 148 -35z
m1040 23 c158 -41 248 -144 248 -284 0 -155 -98 -256 -227 -235 -84 14 -126
53 -126 115 0 62 68 106 115 76 46 -30 25 -126 -27 -126 -26 0 -18 -21 13 -38
29 -16 91 -10 124 12 71 47 93 201 44 306 -35 76 -70 114 -131 144 -61 31
-121 33 -211 10 -106 -27 -202 -86 -258 -158 -32 -41 -32 -41 -3 -15 100 91
234 70 234 -37 0 -44 -45 -94 -84 -94 -30 0 -66 32 -66 59 0 48 74 53 86 5 6
-24 7 -24 25 -8 29 26 25 78 -7 103 -33 26 -57 26 -113 1 -91 -42 -146 -107
-186 -222 l-26 -73 7 60 c18 169 188 366 350 404 61 14 154 12 219 -5z m350
-268 c35 -69 32 -126 -5 -126 -25 0 -28 7 -50 98 -10 42 -26 97 -34 122 l-16
45 40 -45 c22 -25 51 -67 65 -94z m-1941 87 c-9 -20 -24 -73 -33 -117 -19 -89
-41 -116 -67 -81 -17 23 -12 71 13 118 13 26 90 117 99 117 2 0 -4 -17 -12
-37z m-1141 -49 c18 -9 68 -42 112 -73 88 -62 85 -72 -16 -46 -101 26 -149 63
-149 114 0 25 11 26 53 5z m4188 4 c5 -47 -26 -81 -96 -107 -52 -20 -145 -38
-145 -28 0 7 121 93 173 123 47 27 66 30 68 12z m-4792 -24 c87 -22 143 -46
219 -96 70 -46 68 -58 -8 -57 -91 0 -123 13 -211 84 -46 37 -88 71 -93 76 -15
14 20 11 93 -7z m5441 12 c0 -4 -112 -96 -161 -133 -34 -25 -133 -38 -189 -25
l-35 8 48 33 c63 43 164 88 235 106 58 13 102 18 102 11z m687 -16 c-2 -11 -6
-22 -10 -26 -3 -4 -3 -12 0 -18 10 -15 11 -76 2 -70 -4 2 -9 0 -11 -5 -1 -5
-61 -28 -133 -51 -95 -31 -152 -43 -210 -46 l-80 -4 72 20 c135 38 261 108
337 189 35 37 37 37 33 11z m-6437 -167 c0 -2 -8 1 -19 6 -10 6 -20 8 -23 6
-3 -3 -5 1 -5 9 0 12 4 12 24 -1 13 -8 23 -17 23 -20z m400 -15 c131 -42 135
-51 20 -45 -76 3 -113 11 -184 37 -69 26 -85 35 -70 42 32 13 134 -2 234 -34z
m5398 34 c8 -6 -16 -20 -70 -41 -87 -34 -193 -50 -244 -36 -27 7 -22 10 56 37
122 42 228 59 258 40z m-2780 -124 c56 -179 65 -276 34 -338 -33 -66 -126 -63
-152 6 -15 37 -12 140 5 214 21 89 65 220 74 220 4 0 22 -46 39 -102z m-2023
26 c-37 -28 -114 -64 -172 -79 -60 -16 -184 -19 -217 -6 -18 7 -16 10 15 33
80 60 106 66 264 67 119 0 128 -1 110 -15z m4275 -8 c19 -10 50 -30 69 -44 31
-23 33 -26 15 -33 -63 -25 -233 -1 -323 46 -104 53 -101 56 59 53 118 -3 152
-7 180 -22z"/>
<path d="M3662 7408 c-44 -46 -74 -121 -79 -198 -6 -87 14 -125 88 -163 48
-25 62 -28 125 -24 86 5 123 24 234 122 127 113 203 159 310 191 l45 14 -60
-4 c-79 -5 -138 -32 -211 -96 -125 -111 -248 -170 -354 -170 -41 0 -53 5 -79
30 -70 71 -67 194 10 301 27 39 11 37 -29 -3z"/>
<path d="M7114 7407 c56 -73 71 -178 37 -253 -25 -56 -54 -74 -117 -74 -101 0
-205 49 -331 157 -89 76 -145 103 -223 109 l-55 5 69 -25 c82 -30 175 -90 276
-180 107 -96 148 -118 230 -124 58 -4 76 -1 124 21 78 36 98 71 93 162 -4 81
-33 155 -79 203 -41 42 -56 41 -24 -1z"/>
<path d="M10115 5625 c-96 -25 -137 -105 -136 -265 0 -176 60 -250 200 -250
146 0 201 73 201 265 0 112 -19 173 -66 214 -33 29 -90 51 -129 50 -11 0 -42
-6 -70 -14z"/>
<path d="M2035 5443 c-21 -59 -40 -114 -42 -120 -4 -10 16 -13 81 -13 47 0 86
1 86 3 0 9 -70 208 -77 222 -8 13 -19 -9 -48 -92z"/>
<path d="M2660 5535 l0 -95 84 0 c108 0 142 12 156 55 14 44 3 102 -23 120
-15 11 -49 15 -119 15 l-98 0 0 -95z"/>
<path d="M4370 5515 l0 -115 88 0 c69 0 94 4 120 20 52 32 66 92 37 155 -22
44 -51 55 -155 55 l-90 0 0 -115z"/>
<path d="M5042 5538 l3 -93 103 0 c97 0 105 2 123 24 13 16 19 39 19 71 0 41
-4 52 -26 69 -23 18 -41 21 -126 21 l-99 0 3 -92z"/>
<path d="M7720 5534 l0 -96 105 4 c123 4 135 12 143 87 4 43 1 53 -21 75 -25
24 -32 26 -127 26 l-100 0 0 -96z"/>
<path d="M8720 5516 l0 -116 84 0 c138 0 176 26 176 119 0 38 -6 56 -24 78
-23 27 -28 28 -130 31 l-106 4 0 -116z"/>
<path d="M3666 3756 c-55 -51 -80 -117 -81 -208 0 -62 4 -82 21 -105 51 -70
192 -98 284 -56 25 11 81 52 125 92 131 117 272 201 335 201 11 0 20 5 20 11
0 7 -16 8 -47 3 -88 -12 -145 -41 -228 -114 -94 -84 -194 -136 -287 -152 -60
-10 -70 -9 -99 8 -94 55 -103 222 -17 320 39 44 20 44 -26 0z"/>
<path d="M7090 3783 c0 -6 7 -17 17 -24 30 -25 63 -111 63 -164 0 -56 -26
-120 -60 -150 -18 -16 -35 -20 -84 -18 -107 2 -198 47 -331 162 -79 69 -151
101 -223 100 l-47 0 54 -15 c76 -20 139 -57 234 -136 45 -37 104 -86 130 -108
28 -22 71 -46 100 -55 99 -29 225 13 263 87 24 47 13 156 -23 227 -26 49 -93
117 -93 94z"/>
</g>
</svg>
